PathFileType	4	(X/Y/Z)	D:\Studies\Accel_Decel\Raw_data\p_01\static/static_01.trc
DataRate	CameraRate	NumFrames	NumMarkers	Units	OrigDataRate	OrigDataStartFrame	OrigNumFrames
200.000000	200.000000	4	63	mm	200.000000	123	987
Frame#	Time	C7			Sternum			MidT			L.ASIS			R.ASIS			L.PSIS			R.PSIS			L.Acromion			L.Elbow.Med			L.Elbow.Lat			L.Radius			L.Ulna			R.Acromion			R.Elbow.Med			R.Elbow.Lat			R.Ulna			R.Radius			L.Thigh.Post.Sup			L.Thigh.Ant.Sup			L.Thigh.Post.Inf			L.Thigh.Ant.Inf			L.Knee.Med			L.Knee.Lat			L.Shank.Post.Sup			L.Shank.Ant.Sup			L.Shank.Post.Inf			L.Shank.Ant.Inf			L.Ankle.Med			L.Ankle.Lat			L.Heel.Sup			L.Heel.Inf			L.Heel. Med			L.Heel.Lat			L.Midfoot.Med			L.Midfoot.Int			L.Midfoot.Lat			L.MTP1			L.MTP2			L.MTP5			L.Toe			R.Thigh.Post.Sup			R.Thigh.Ant.Sup			R.Thigh.Post.Inf			R.Thigh.Ant.Inf			R.Knee.Med			R.Knee.Lat			R.Shank.Post.Sup			R.Shank.Ant.Sup			R.Shank.Post.Inf			R.Shank.Ant.Inf			R.Ankle.Med			R.Ankle.Lat			R.Heel.Sup			R.Heel.Inf			R.Heel.Med			R.Heel.Lat			R.Midfoot.Med			R.Midfoot.Int			R.Midfoot.Lat			R.MTP1			R.MTP2			R.MTP5			R.Toe			
		X1	Y1	Z1	X2	Y2	Z2	X3	Y3	Z3	X4	Y4	Z4	X5	Y5	Z5	X6	Y6	Z6	X7	Y7	Z7	X8	Y8	Z8	X9	Y9	Z9	X10	Y10	Z10	X11	Y11	Z11	X12	Y12	Z12	X13	Y13	Z13	X14	Y14	Z14	X15	Y15	Z15	X16	Y16	Z16	X17	Y17	Z17	X18	Y18	Z18	X19	Y19	Z19	X20	Y20	Z20	X21	Y21	Z21	X22	Y22	Z22	X23	Y23	Z23	X24	Y24	Z24	X25	Y25	Z25	X26	Y26	Z26	X27	Y27	Z27	X28	Y28	Z28	X29	Y29	Z29	X30	Y30	Z30	X31	Y31	Z31	X32	Y32	Z32	X33	Y33	Z33	X34	Y34	Z34	X35	Y35	Z35	X36	Y36	Z36	X37	Y37	Z37	X38	Y38	Z38	X39	Y39	Z39	X40	Y40	Z40	X41	Y41	Z41	X42	Y42	Z42	X43	Y43	Z43	X44	Y44	Z44	X45	Y45	Z45	X46	Y46	Z46	X47	Y47	Z47	X48	Y48	Z48	X49	Y49	Z49	X50	Y50	Z50	X51	Y51	Z51	X52	Y52	Z52	X53	Y53	Z53	X54	Y54	Z54	X55	Y55	Z55	X56	Y56	Z56	X57	Y57	Z57	X58	Y58	Z58	X59	Y59	Z59	X60	Y60	Z60	X61	Y61	Z61	X62	Y62	Z62	X63	Y63	Z63	

124	0.615	154.6498718261719	1411.761108398438	238.3718872070314	308.8413696289064	1355.36181640625	235.3929595947267	112.4897994995118	1255.71240234375	237.1352996826173	305.2229614257814	946.6252441406255	117.7824859619141	308.3980712890626	949.5605468750005	337.0581359863282	141.3865051269532	970.3417358398442	188.6646575927735	140.5341949462891	967.8940429687505	269.9326171875001	220.6223297119142	1398.784912109375	55.68617630004886	243.3863677978517	1082.296264648438	58.94281768798831	218.5218963623048	1124.748779296875	-38.53669738769533	289.9749145507814	911.4382324218755	-119.589714050293	247.2173461914064	873.414672851563	-59.99818420410159	216.1093902587892	1382.803100585938	421.2745666503909	244.7905731201173	1063.406127929688	415.4690856933596	217.482147216797	1094.382568359375	521.2839355468752	252.9573516845704	848.5700073242192	521.7298583984377	287.5313110351564	880.6027832031255	590.9924316406252	196.0724945068361	701.927429199219	57.01179504394534	270.5880126953126	700.041442871094	41.95738983154298	193.5163421630861	597.5061645507815	63.1568298339844	255.7800140380861	611.821960449219	44.16090774536134	257.1546020507814	480.3749084472659	177.0979766845704	218.0139617919923	502.7401123046877	61.76752090454104	152.7001342773438	309.5148315429689	46.70354461669923	233.4258422851564	297.8733520507814	47.38476181030275	156.1573333740235	248.3613128662111	47.65865325927736	217.0115966796876	220.3840789794923	48.98561477661136	201.6569824218751	113.9878158569337	139.6494598388672	182.1402893066407	101.2135314941407	50.08240127563479	117.2311477661133	79.93202972412112	101.3232879638672	111.7671585083008	49.17817306518558	97.52819061279303	144.2387695312501	49.54587173461917	138.698959350586	132.935287475586	44.96175765991212	56.71309280395511	243.8327484130861	88.39109802246097	138.4634094238282	277.5840454101564	109.9253540039063	88.61379241943362	221.1502990722657	84.82810211181643	33.35479736328126	328.5267333984376	62.23372650146487	119.511703491211	335.9595336914064	74.7758712768555	86.2320251464844	316.0748596191407	58.92493057250979	21.72161293029786	374.5068969726564	67.9990158081055	80.73075866699222	174.9620056152344	711.5173339843752	392.0969543457034	244.9639434814454	708.2106933593752	420.0285949707034	182.3265228271485	625.0945434570315	406.6777343750002	240.1507110595704	602.9193115234377	420.5758972167971	245.9862823486329	484.5619201660159	292.3861694335939	217.4118194580079	493.7966308593752	407.8559570312502	142.0575103759766	271.620819091797	407.7359008789065	204.7645721435548	286.9530639648439	423.3696289062502	135.4310760498047	210.852020263672	389.4978027343752	207.7393341064454	206.8022308349611	411.4563598632815	202.4728393554689	121.5030136108399	317.0689697265626	175.2950744628907	109.514274597168	402.093200683594	120.5422439575196	83.98182678222659	349.5000305175782	113.2766952514649	47.80488967895509	352.386199951172	159.9216766357422	39.63550186157228	305.3617248535157	142.0752105712891	47.40626525878908	396.3245544433596	241.8834991455079	87.81054687500003	312.1201477050782	280.8639221191407	108.5398864746094	362.6956481933595	225.2304229736329	84.30286407470706	416.7522277832034	319.1275024414064	64.99644470214847	325.1454467773439	328.9307250976564	77.22747039794925	369.1842346191407	294.756072998047	46.26370239257814	433.1307373046877	373.3389587402345	71.11675262451175	371.2296447753907	
125	0.62	154.6000976562501	1411.743286132813	238.3092346191407	308.8043823242189	1355.396850585938	235.3746185302736	112.4589538574219	1255.691528320313	237.0742034912111	305.2426147460939	946.6003417968755	117.7726669311524	308.4048767089845	949.5575561523442	337.066131591797	141.3289489746094	970.3781127929692	188.6467590332032	140.5397491455079	967.9148559570317	269.9217834472657	220.6316223144532	1398.776733398438	55.67443847656253	243.3931121826173	1082.301391601563	58.93276596069339	218.5559844970704	1124.747314453125	-38.567684173584	290.0118713378907	911.441040039063	-119.6099166870118	247.2615814208986	873.3957519531255	-60.00296783447268	216.0746002197267	1382.821166992188	421.2446899414065	244.7165832519532	1063.402099609375	415.4461669921877	217.4580078125001	1094.412353515625	521.2814941406252	252.9404296875001	848.5938110351567	521.7191162109377	287.5169372558595	880.638305664063	590.9929809570315	196.0263061523439	701.8792114257815	56.83838272094729	270.5896606445314	700.0330810546877	41.96080780029298	193.5460968017579	597.503356933594	63.1348571777344	255.8006134033204	611.8555908203127	44.1863479614258	257.1797790527345	480.3882141113284	177.1120758056641	218.134002685547	502.5989990234377	61.83332824707034	152.7206268310547	309.5000000000001	46.7331008911133	233.4364776611329	297.877410888672	47.38708114624025	156.0806884765626	248.2891845703126	47.77565002441408	216.963104248047	220.289764404297	49.10033798217776	201.6351470947267	113.9906845092774	139.6334533691407	182.1428680419922	101.2097396850587	50.0699157714844	117.2742538452149	79.92131805419925	101.3068389892579	111.7929611206055	49.15436172485354	97.55887603759771	144.2399139404297	49.54077529907229	138.6703186035157	132.8987121582032	44.94398117065431	56.73322677612308	243.8447265625001	88.39125061035159	138.4648895263672	277.6148681640626	109.9294433593751	88.57792663574222	221.1740112304689	84.83157348632815	33.35628890991212	328.5062561035157	62.22510147094729	119.496208190918	335.9873657226564	74.77095031738284	86.22039794921878	316.0902709960939	58.91287994384768	21.72017478942872	374.5117187500001	68.00752258300784	80.74138641357425	174.9418487548829	711.5595703125002	392.1156311035159	244.9201202392579	708.1990966796877	420.0172119140627	182.303451538086	625.0723266601565	406.596618652344	240.1306610107423	602.9069824218752	420.5962524414065	245.9649963378907	484.5632019042971	292.3993530273439	217.3531341552736	493.8097229003909	407.8572692871096	142.0450134277344	271.5939331054689	407.6973266601565	204.7440185546876	286.9522705078126	423.348815917969	135.4107666015626	210.8540496826173	389.4856567382815	207.7776489257814	206.7987365722657	411.4809570312502	202.4658355712892	121.4978179931641	317.0559997558595	175.2920684814454	109.5268783569337	402.0958557128909	120.5371932983399	84.01406860351565	349.4722595214845	113.2804641723633	47.8129234313965	352.3798828125001	159.906723022461	39.64649200439455	305.3677673339845	142.0699615478516	47.4058303833008	396.3211364746096	241.8658142089845	87.80664062500003	312.1053161621095	280.878143310547	108.5558319091797	362.6797180175782	225.2268371582032	84.28932189941409	416.7568664550784	319.1314392089845	64.99810791015628	325.1515197753907	328.9191894531251	77.24353790283206	369.1760253906251	294.7566528320314	46.24523544311525	433.1311035156252	373.3389892578126	71.11721801757815	371.2227172851564	
126	0.625	154.5572814941407	1411.734130859375	238.275604248047	308.7921447753907	1355.430297851563	235.3522186279298	112.4649047851563	1255.659545898438	237.0280914306642	305.2540893554689	946.6140747070317	117.772933959961	308.4077758789064	949.5841674804692	337.0857238769532	141.3850860595704	970.3430175781255	188.6538543701172	140.5665588378907	967.9069824218755	269.9037170410157	220.613739013672	1398.783569335938	55.63490295410159	243.3609466552736	1082.295166015625	58.90505981445315	218.5606384277345	1124.751098632813	-38.61047744750978	290.0648498535157	911.4509277343755	-119.6173934936524	247.324676513672	873.4059448242192	-60.03625106811526	216.0242309570314	1382.832397460938	421.216979980469	244.7274322509767	1063.428588867188	415.4466247558596	217.5515899658204	1094.506225585938	521.4038085937502	252.9436187744142	848.6416015625005	521.722595214844	287.5188598632814	880.6601562500005	590.992858886719	196.127410888672	701.964294433594	56.98177337646487	270.5877685546876	700.0552978515627	41.99465560913087	193.5433197021486	597.4633789062502	63.14466857910159	255.8068237304689	611.8416748046877	44.1787452697754	257.1362609863282	480.368591308594	177.1182556152344	218.1691284179689	502.5759582519534	61.81647491455081	152.7689361572266	309.5596313476564	46.69431686401369	233.4473724365236	297.8706665039064	47.40915679931642	156.1867980957032	248.3440856933595	47.69277954101564	217.0178375244142	220.3954162597657	48.95177841186526	201.6647033691407	113.9771423339844	139.6397705078126	182.1513214111329	101.2087326049805	50.07635116577151	117.2801132202149	79.91690826416018	101.3021392822266	111.8139190673829	49.15795516967776	97.55048370361334	144.2557067871094	49.53577423095706	138.6676177978516	132.9252319335938	44.94506835937501	56.69594192504886	243.8506927490236	88.41625976562503	138.4704284667969	277.6150207519532	109.9221649169922	88.59669494628909	221.1646728515626	84.82534027099612	33.35489654541017	328.5010986328126	62.23491287231448	119.4936981201172	336.0012512207032	74.78018188476565	86.21548461914065	316.0600585937501	58.94165802001956	21.69886589050294	374.5305480957032	67.99769592285159	80.71875000000003	174.8638763427735	711.4877929687502	392.0553894042971	244.853729248047	708.216491699219	420.0398864746096	182.2361145019532	625.077819824219	406.4783630371096	240.1839447021486	602.923522949219	420.6645202636721	245.9599914550782	484.5782775878909	292.3794860839845	217.3208312988282	493.7778930664065	407.859313964844	142.0265502929688	271.6007385253907	407.6876525878909	204.752166748047	286.9515380859376	423.3760070800784	135.4304504394532	210.9588775634767	389.4174804687502	207.7481231689454	206.8087310791017	411.463562011719	202.4821929931642	121.4935760498047	317.0638732910157	175.3011932373047	109.5157928466797	402.0850219726565	120.5900115966797	83.98368835449222	349.4812622070314	113.3037796020508	47.79660034179689	352.3613281250001	159.950668334961	39.62933349609376	305.3692016601564	142.0921020507813	47.40281677246095	396.3156738281252	241.9032287597657	87.79368591308597	312.1066284179689	280.8741760253907	108.5532531738282	362.6851196289064	225.2286987304689	84.2931823730469	416.7590332031252	319.1405639648439	64.99781799316409	325.1466674804689	328.9350585937501	77.24143218994143	369.1724548339845	294.7350158691407	46.26405334472658	433.1095275878909	373.344940185547	71.11958312988284	371.2193908691407	
127	0.63	154.5103454589844	1411.7080078125	238.2138671875001	308.7678833007814	1355.459228515625	235.342498779297	112.436378479004	1255.637084960938	237.0106811523439	305.2816467285157	946.617797851563	117.8000183105469	308.3742980957032	949.587524414063	337.1070861816407	141.3588256835938	970.3676147460942	188.6359863281251	140.5299987792969	967.9225463867192	269.8866577148439	220.5864257812501	1398.77294921875	55.59742736816409	243.3919372558595	1082.298706054688	58.88895416259768	218.5921173095704	1124.76318359375	-38.62514877319337	290.0876770019532	911.4448242187505	-119.623878479004	247.3382568359376	873.3901367187505	-60.05005645751956	215.9582977294923	1382.847045898438	421.1831359863284	244.7098693847657	1063.451538085938	415.4399719238284	217.3890533447267	1094.43505859375	521.2557373046877	252.9446563720704	848.6658325195317	521.7251586914065	287.495086669922	880.727172851563	591.004089355469	196.1437225341798	701.9299926757815	57.00959396362308	270.6063232421876	700.045593261719	41.94981765747072	193.5370178222657	597.4934692382815	63.16200637817386	255.7914276123048	611.8543090820315	44.19369125366212	257.1097106933595	480.3731689453127	177.1211395263672	218.1604919433595	502.5904235839846	61.81673812866214	152.7574157714844	309.5544433593751	46.71487045288087	233.4639282226564	297.9142150878907	47.39631652832033	156.1968231201172	248.3832397460939	47.74483108520509	217.0183715820314	220.385711669922	48.94300079345706	201.6621398925782	113.9800872802735	139.6433410644532	182.1274719238282	101.2121047973633	50.07264328002933	117.3388748168946	79.88411712646487	101.267692565918	111.7907104492188	49.17288970947268	97.52373504638678	144.270248413086	49.53941726684573	138.6836547851563	132.9323425292969	44.94343185424806	56.73318099975589	243.8362731933595	88.40180969238284	138.4819793701172	277.6260375976564	109.9115295410157	88.57751464843753	221.1703643798829	84.82645416259768	33.35848617553712	328.5388793945314	62.23905181884768	119.516212463379	335.972137451172	74.78675079345706	86.20967864990237	316.0750427246095	58.90874099731448	21.7098789215088	374.5281982421876	68.02016448974612	80.71784210205081	174.8479614257813	711.4581298828127	392.0834045410159	244.7827758789064	708.2083129882815	420.0426025390627	182.208724975586	625.111999511719	406.5838317871096	240.0576934814454	602.9246215820315	420.5958557128909	245.9588470458986	484.570983886719	292.4057922363282	217.3179931640626	493.7929992675784	407.8686218261721	142.0157623291016	271.5900878906251	407.7039489746096	204.7008819580079	286.9434204101564	423.3390197753909	135.3721160888672	210.8516387939454	389.4649047851565	207.7138061523439	206.8102111816407	411.4468688964846	202.4338378906251	121.4943313598633	317.0499877929689	175.2978668212891	109.5221633911133	402.0740356445315	120.5610275268555	83.95886230468753	349.4880371093751	113.296012878418	47.82114410400392	352.3662414550782	159.9380493164063	39.64548492431642	305.3640441894532	142.0866699218751	47.40202713012697	396.3240356445315	241.8752441406251	87.8113708496094	312.1111755371095	280.8781127929689	108.5622024536133	362.6773071289064	225.2321319580079	84.29726409912112	416.7486572265627	319.1119079589845	65.00775146484378	325.1397705078126	328.9312133789064	77.25461578369143	369.1630859375001	294.7348632812501	46.22984695434572	433.1151123046877	373.342742919922	71.1244812011719	371.2300415039064	
